<svg xmlns="http://www.w3.org/2000/svg" viewBox="0 0 800 400" width="800" height="400">
  <defs>
    <linearGradient id="bg" x1="0%" y1="0%" x2="100%" y2="100%">
      <stop offset="0%" style="stop-color:#0a0a0a"/>
      <stop offset="100%" style="stop-color:#1a1a1a"/>
    </linearGradient>
  </defs>
  <rect width="800" height="400" fill="url(#bg)"/>

  <!-- Mining Pool -->
  <g transform="translate(400, 100)">
    <rect x="-80" y="-40" width="160" height="80" rx="8" fill="#1a1a1a" stroke="#f7931a" stroke-width="2"/>
    <text y="-10" font-family="monospace" font-size="14" fill="#f7931a" text-anchor="middle">MINING</text>
    <text y="10" font-family="monospace" font-size="14" fill="#f7931a" text-anchor="middle">POOL</text>
  </g>

  <!-- Miners -->
  <g fill="#1a1a1a" stroke="#4ade80" stroke-width="2">
    <rect x="100" y="250" width="100" height="60" rx="4"/>
    <rect x="250" y="250" width="100" height="60" rx="4"/>
    <rect x="450" y="250" width="100" height="60" rx="4"/>
    <rect x="600" y="250" width="100" height="60" rx="4"/>
  </g>

  <!-- Miner labels -->
  <g font-family="monospace" font-size="10" fill="#4ade80" text-anchor="middle">
    <text x="150" y="285">Miner 1</text>
    <text x="300" y="285">Miner 2</text>
    <text x="500" y="285">Miner 3</text>
    <text x="650" y="285">Miner 4</text>
  </g>

  <!-- Encrypted channels -->
  <g stroke="#4ade80" stroke-width="2">
    <line x1="150" y1="250" x2="350" y2="140"/>
    <line x1="300" y1="250" x2="380" y2="140"/>
    <line x1="500" y1="250" x2="420" y2="140"/>
    <line x1="650" y1="250" x2="450" y2="140"/>
  </g>

  <!-- Lock symbols for encryption -->
  <g font-family="monospace" font-size="12" fill="#4ade80">
    <text x="240" y="200">🔒</text>
    <text x="340" y="190">🔒</text>
    <text x="440" y="190">🔒</text>
    <text x="540" y="200">🔒</text>
  </g>

  <!-- Features -->
  <g font-family="monospace" font-size="10" fill="#6b7280">
    <text x="100" y="340">• Encrypted</text>
    <text x="250" y="340">• Job Declaration</text>
    <text x="450" y="340">• Template Selection</text>
    <text x="620" y="340">• Decentralized</text>
  </g>

  <!-- Title -->
  <text x="400" y="380" font-family="monospace" font-size="24" fill="#f7931a" text-anchor="middle" opacity="0.8">STRATUM V2</text>
</svg>